<svg width="663" height="569" viewBox="0 0 663 569" fill="none" xmlns="http://www.w3.org/2000/svg">
<path fill-rule="evenodd" clip-rule="evenodd" d="M372.836 1.05008C370.361 1.55708 364.286 2.41208 359.336 2.95008C345.895 4.41108 339.096 5.48408 331.336 7.36608C327.486 8.30008 322.311 9.46809 319.836 9.96009C314.355 11.0521 309.332 12.3811 305.336 13.7961C303.686 14.3811 298.061 16.2671 292.836 17.9871C277.043 23.1851 247.652 35.7791 246.333 37.9131C245.995 38.4611 244.833 38.9091 243.752 38.9091C242.368 38.9091 241.609 39.7961 241.186 41.9091C240.49 45.3911 240.388 45.4121 234.269 43.3351C227.214 40.9391 204.022 40.9421 197.062 43.3391C188.677 46.2261 185.655 51.8401 189.695 57.0241C194.989 63.8181 195.017 64.0351 194.418 93.7441C193.598 134.419 192.73 146.911 190.489 150.323C189.382 152.009 188.81 154.276 189.061 155.986C189.413 158.384 189.032 158.994 186.668 159.818C184.708 160.501 184.038 161.271 184.456 162.361C184.786 163.221 184.301 165.076 183.379 166.484C181.382 169.532 181.995 170.546 188.571 175.071C191.59 177.148 192.761 178.576 192.396 179.736C192.106 180.656 191.651 187.934 191.384 195.909C189.729 245.336 189.118 254.154 186.847 261.405C186.329 263.057 185.656 265.647 185.352 267.159C184.971 269.047 184.177 269.909 182.817 269.909C181.136 269.909 180.836 270.59 180.836 274.409C180.836 276.884 180.526 278.909 180.148 278.909C179.77 278.909 175.382 274.972 170.397 270.159C156.727 256.961 148.247 249.183 138.609 241.002C131.416 234.897 130.145 233.403 131.376 232.502C132.581 231.62 132.686 230.538 131.917 226.909C130.344 219.476 129.184 215.657 126.955 210.576C124.415 204.784 124.302 202.597 126.448 200.816C127.981 199.544 129.539 196.435 134.919 183.909C146.98 155.826 165.402 128.086 187.484 104.753L192.836 99.0981V88.5631C192.836 82.1231 192.418 77.7691 191.76 77.3621C187.86 74.9521 156.523 107.321 139.438 131.409C129.946 144.79 112.836 175.456 112.836 179.086C112.836 182.296 111.403 181.594 106.764 176.114C97.6428 165.338 77.6668 148.909 73.6858 148.909C71.6848 148.909 71.2078 151.652 72.6848 154.673C86.7088 183.356 96.2908 198.296 111.633 215.396C116.068 220.338 119.532 224.546 119.332 224.747C119.131 224.947 118.375 224.604 117.652 223.984C116.928 223.364 113.995 221.181 111.134 219.133C108.274 217.085 101.384 212.034 95.8248 207.909C74.3178 191.951 52.2288 176.811 43.3358 171.934C40.0358 170.125 36.8858 168.306 36.3358 167.892C32.9978 165.382 6.33584 152.702 3.39084 152.224C-3.06716 151.176 -1.00016 154.819 15.6978 173.909C28.2118 188.216 49.2708 207.865 59.6468 214.916C61.6758 216.294 65.8108 219.247 68.8358 221.478C74.7338 225.827 87.3918 233.594 97.6688 239.168C101.152 241.057 103.959 243.01 103.906 243.506C103.792 244.578 98.8298 244.457 81.3358 242.954C74.1858 242.34 65.4108 241.966 61.8358 242.123C56.2118 242.37 55.2978 242.678 55.0518 244.409C54.7708 246.394 57.5138 247.573 70.3358 250.982C71.9858 251.421 75.3608 252.346 77.8358 253.037C80.3108 253.729 83.5178 254.423 84.9628 254.58C86.4068 254.736 88.8158 255.331 90.3138 255.901C92.4438 256.711 92.8529 257.316 92.1879 258.673C90.4708 262.172 90.5879 300.654 92.3578 314.909C93.2798 322.334 94.4398 329.714 94.9348 331.308C95.4308 332.903 95.8358 335.469 95.8358 337.011C95.8358 338.553 96.2389 340.849 96.7309 342.112C97.2228 343.375 98.8508 349.134 100.349 354.909C103.161 365.747 109.089 383.512 111.362 387.909C112.072 389.284 113.64 392.884 114.846 395.909C117.428 402.389 126.473 419.72 128.456 421.988C129.215 422.856 129.836 423.827 129.836 424.146C129.836 424.944 144.643 446.709 148.336 451.34C183.417 495.326 221.447 523.58 275.336 545.694C289.486 551.501 316.917 560.191 326.836 562.009C329.311 562.463 334.936 563.535 339.336 564.393C353.666 567.185 372.79 568.374 402.836 568.341C436.53 568.303 445.705 567.438 471.336 561.885C491.368 557.545 507.386 552.495 528.336 543.917C529.436 543.467 537.761 539.489 546.836 535.077C574.579 521.589 599.121 504.263 622.058 481.972C636.645 467.796 650.836 450.276 650.836 446.444C650.836 442.925 648.158 444.381 639.534 452.589C629.83 461.825 616.832 472.992 605.836 481.54C590.378 493.556 560.876 510.449 542.336 517.9C537.936 519.668 532.986 521.676 531.336 522.362C529.686 523.048 526.761 524.172 524.836 524.86C522.911 525.548 520.436 526.495 519.336 526.964C511.443 530.333 488.245 536.477 474.336 538.883C471.586 539.358 466.636 540.339 463.336 541.061C459.056 541.998 445.433 542.458 415.816 542.663C371.438 542.971 376.055 543.289 346.336 537.868C341.896 537.058 332.621 534.635 313.336 529.247C310.036 528.325 306.909 527.197 306.386 526.74C305.864 526.283 304.641 525.909 303.67 525.909C302.699 525.909 300.201 525.172 298.12 524.27C296.039 523.369 293.211 522.181 291.836 521.63C290.461 521.079 287.824 519.904 285.977 519.019L282.617 517.409L283.206 508.909C283.531 504.234 284.069 491.634 284.403 480.909C284.966 462.853 286.37 451.182 288.942 443.175C289.513 441.396 289.693 439.033 289.341 437.925C288.503 435.284 284.836 435.223 284.836 437.85C284.836 440.679 283.639 440.978 280.967 438.814L278.609 436.904L281.722 436.282C283.72 435.882 284.836 435.059 284.836 433.984C284.836 433.063 285.305 431.84 285.879 431.266C286.538 430.607 287.077 419.062 287.343 399.936C287.574 383.277 288.005 369.407 288.3 369.112C288.595 368.817 288.836 372.446 288.836 377.177C288.836 386.424 289.869 390.601 292.395 391.57C296.363 393.093 318.244 382.927 330.451 373.89C343.474 364.25 347.836 359.945 347.836 356.731C347.836 353.981 347.975 353.909 353.277 353.909C358.82 353.909 360.252 353.156 359.32 350.728C358.784 349.33 345.327 342.604 331.607 336.876C324.366 333.853 322.498 331.909 326.836 331.909C327.871 331.909 328.996 331.459 329.336 330.909C329.676 330.359 330.59 329.909 331.368 329.909C332.874 329.909 338.273 327.54 354.336 319.833C381.409 306.842 399.431 293.609 393.27 291.245C390.327 290.116 354.997 299.975 344.097 304.967C337.219 308.118 337.08 307.364 343.26 300.438C348.746 294.291 350.183 288.909 346.339 288.909C342.805 288.909 324.479 300.545 318.89 306.338C316.994 308.302 315.138 309.909 314.765 309.909C314.391 309.909 313.812 308.539 313.477 306.865C312.938 304.17 312.636 303.946 310.838 304.908C306.327 307.322 301.276 318.984 302.011 325.285C302.397 328.589 302.17 328.974 299.268 329.931C297.528 330.506 294.283 330.684 292.057 330.328C287.376 329.58 286.22 327.318 288.363 323.103C289.679 320.516 291.33 293.618 292.335 258.409C292.707 245.394 294.228 227.878 295.445 222.599C295.971 220.313 295.712 219.689 294.057 219.256C291.317 218.54 290.6 215.199 292.548 212.226C293.836 210.26 294.231 205.663 294.621 188.063C295.039 169.272 294.883 165.9 293.47 163.168C292.571 161.43 291.836 158.855 291.836 157.445C291.836 156.035 291.301 154.025 290.646 152.977C289.245 150.733 290.972 147.909 293.747 147.909C295.667 147.909 305.517 144.561 306.506 143.573C306.871 143.208 308.027 142.909 309.075 142.909C311.282 142.909 332.486 132.534 335.086 130.182C337.405 128.084 337.297 126.226 334.777 124.878C332.866 123.855 303.638 123.963 298.336 125.013C296.99 125.279 296.407 124.918 296.554 123.909C297.184 119.559 298.622 114.155 299.664 112.218C300.673 110.344 300.526 109.805 298.652 108.492C296.215 106.786 295.676 105.201 295.621 99.5801C295.572 94.5421 293.2 93.4231 284.534 94.3511L278.076 95.0421L277.426 99.9401C277.032 102.913 276.075 105.342 274.99 106.123C274.008 106.83 272.943 108.112 272.624 108.971C272.305 109.83 269.107 111.978 265.518 113.745C253.219 119.8 243.836 133.243 243.836 144.811C243.836 149.674 244.197 151.032 245.705 151.839C246.732 152.389 247.888 152.524 248.273 152.139C248.658 151.754 249.735 152.449 250.666 153.684C252.3 155.85 252.658 155.895 260.848 154.95C265.516 154.411 270.627 153.669 272.205 153.301L275.073 152.631L274.339 163.52C273.935 169.509 273.447 183.846 273.254 195.38C272.916 215.568 272.821 216.412 270.718 217.998C268.68 219.536 268.612 219.963 269.718 224.354C271.076 229.747 271.119 251.925 269.846 289.815C269.336 304.972 269.362 317.477 269.91 320.815C270.871 326.668 270.862 326.689 266.228 329.483C264.651 330.434 264.596 330.916 265.749 333.698C267.218 337.244 267.991 368.062 266.664 370.153C266.195 370.892 265.86 369.661 265.851 367.159C265.839 363.717 265.489 362.909 264.01 362.909C263.006 362.909 261.141 364.02 259.865 365.378C257.245 368.167 255.836 367.866 255.836 364.517C255.836 358.821 252.154 360.849 248.447 368.587C246.913 371.789 245.248 375.19 244.747 376.145C243.541 378.444 243.582 384.255 244.814 385.487C245.451 386.124 243.496 388.13 239.203 391.243C232.695 395.963 229.825 396.789 233.309 392.938C234.296 391.848 235.156 389.273 235.22 387.216C235.374 382.239 232.776 381.639 229.245 385.835C226.557 389.029 222.836 389.976 222.836 387.466C222.836 385.721 226.626 382.909 228.979 382.909C231.56 382.909 232.308 377.722 230.289 373.818C228.802 370.942 228.679 367.622 229.191 343.995C230.153 299.504 231.815 285.952 236.872 281.376C239.656 278.857 239.656 271.909 236.871 271.909C235.791 271.909 234.367 272.921 233.708 274.159C231.103 279.049 226.495 280.327 223.611 276.96C222.045 275.13 222.056 274.974 223.8 274.421C224.821 274.096 226.383 272.724 227.27 271.37C228.273 269.838 229.829 268.909 231.39 268.909C234.834 268.909 235.324 266.867 233.369 260.653C232.032 256.401 231.825 253.094 232.321 243.883C232.661 237.572 233.101 224.534 233.299 214.909C233.496 205.284 234.035 197.414 234.497 197.42C235.508 197.434 245.704 200.558 251.543 202.645C256.549 204.433 260.836 203.682 260.836 201.015C260.836 199.771 261.783 198.97 263.71 198.584C267.616 197.803 268.235 194.051 265.614 187.044C263.377 181.066 253.644 170.385 247.678 167.361C245.84 166.43 243.661 165.1 242.836 164.407C242.011 163.713 240.319 162.835 239.075 162.456C237.136 161.866 236.727 162.205 236.2 164.838C235.862 166.527 235.022 167.909 234.333 167.909C232.36 167.909 230.651 165.238 231.009 162.714C231.262 160.93 232.127 160.296 234.836 159.909C237.799 159.486 238.386 158.97 238.663 156.552C238.843 154.98 238.396 152.28 237.67 150.552C236.712 148.269 236.418 142.622 236.595 129.909C237.194 87.0481 239.542 61.9091 242.946 61.9091C244.372 61.9091 246.833 56.1821 246.899 52.7091C246.957 49.7281 247.05 49.6271 247.867 51.6591C249.3 55.2241 252.594 54.4701 267.538 47.1531C283.518 39.3281 286.423 38.0521 297.877 33.8321C311.595 28.7771 328.019 24.0001 338.836 21.9181C341.311 21.4411 346.936 20.2941 351.336 19.3691C369.914 15.4621 395.714 14.0131 426.336 15.1551C449.079 16.0041 458.904 16.9421 470.336 19.3601C474.736 20.2901 480.361 21.4321 482.836 21.8971C488.572 22.9761 495.627 24.7091 498.836 25.8291C500.211 26.3091 504.711 27.6981 508.836 28.9171C512.961 30.1361 517.686 31.7191 519.336 32.4331C520.986 33.1481 525.006 34.6971 528.269 35.8761C531.533 37.0541 536.483 39.0711 539.269 40.3591C566.047 52.7291 580.179 60.7041 595.836 72.2841C620.361 90.4211 633.807 103.279 657.073 130.842C659.848 134.13 662.095 134.487 662.631 131.724C663.129 129.156 643.867 106.201 628.201 90.6951C614.232 76.8691 601.177 65.6961 590.133 58.1171C581.117 51.9281 571.789 45.9091 571.217 45.9091C570.902 45.9091 569.332 44.9741 567.727 43.8321C563.736 40.9901 541.321 29.9531 530.336 25.4211C525.386 23.3781 520.436 21.3301 519.336 20.8691C514.703 18.9281 498.623 13.8901 489.336 11.4701C472.661 7.12608 457.845 4.45308 433.836 1.45708C420.001 -0.26892 380.562 -0.532918 372.836 1.05008ZM238.836 52.3501C238.836 52.5931 238.386 53.0691 237.836 53.4091C237.286 53.7491 236.836 53.5501 236.836 52.9681C236.836 52.3861 237.286 51.9091 237.836 51.9091C238.386 51.9091 238.836 52.1071 238.836 52.3501ZM231.293 78.8401C231.61 79.3521 231.411 80.0531 230.852 80.3991C230.293 80.7441 229.836 80.3251 229.836 79.4681C229.836 77.7111 230.436 77.4531 231.293 78.8401ZM231.093 116.917C230.714 126.497 230.186 130.854 229.436 130.595C228.831 130.385 228.495 128.908 228.689 127.311C228.883 125.715 229.124 119.234 229.225 112.909C229.455 98.4591 229.71 96.4211 230.829 100.134C231.28 101.633 231.399 109.185 231.093 116.917ZM275.282 122.054C276.039 129.738 275.505 130.864 271.086 130.894C268.345 130.912 268.34 130.802 270.836 125.909C271.936 123.753 272.836 120.396 272.836 118.449C272.836 112.158 274.556 114.694 275.282 122.054ZM194.15 160.476C196.436 161.353 194.74 166.33 192.019 166.729C190.123 167.006 189.836 166.579 189.836 163.479C189.836 159.886 190.822 159.199 194.15 160.476ZM212.565 163.513C212.233 163.845 211.37 163.881 210.649 163.592C209.851 163.273 210.088 163.036 211.253 162.988C212.307 162.945 212.897 163.181 212.565 163.513ZM226.836 169.909C226.135 171.219 224.742 171.909 222.801 171.909C219.078 171.909 218.964 170.394 222.586 169.071C227.094 167.425 228.063 167.616 226.836 169.909ZM243.589 175.659L246.092 178.909H243.618C242.257 178.909 239.697 178.187 237.929 177.305C234.831 175.76 234.777 175.631 236.463 173.768C238.761 171.23 240.542 171.702 243.589 175.659ZM141.741 184.59C136.141 198.971 134.411 214.856 137.242 225.909C139.595 235.096 148.145 247.909 151.922 247.909C153.178 247.909 153.853 246.769 154.355 243.798C155.17 238.97 154.128 213.416 152.851 206.909C152.365 204.434 151.459 199.547 150.839 196.048C149.028 185.832 147.635 182.452 145.087 182.09C143.4 181.85 142.565 182.474 141.741 184.59ZM228.871 195.451C230.991 198.005 228.406 199.735 225.883 197.452C223.807 195.572 223.989 193.909 226.273 193.909C226.998 193.909 228.167 194.603 228.871 195.451ZM226.69 239.409C226.753 245.459 226.428 251.005 225.966 251.733C224.702 253.726 223.913 237.109 224.668 224.409L225.323 213.409L225.949 220.909C226.293 225.034 226.627 233.359 226.69 239.409ZM136.147 260.829L150.965 261.588L158.966 269.998C163.367 274.624 170.172 282.009 174.088 286.409C183.349 296.815 185.731 297.858 185.946 291.6C186.042 288.796 186.167 288.955 186.975 292.909C187.899 297.427 187.667 311.69 186.081 347.909C185.347 364.686 184.921 368.09 183.032 372.286C181.824 374.969 180.836 377.711 180.836 378.381C180.836 379.051 179.895 380.451 178.744 381.492C177.152 382.933 176.778 384.165 177.181 386.647C177.472 388.441 177.541 389.909 177.334 389.909C177.127 389.909 173.893 388.336 170.147 386.414C162.719 382.602 160.078 382.114 159.204 384.391C158.413 386.453 167.128 397.131 177.598 406.927C185.734 414.539 186.167 415.149 184.89 417.194C183.356 419.651 182.529 426.278 183.335 429.653C183.66 431.015 185.267 432.48 187.425 433.382C191.435 435.057 191.151 436.909 186.884 436.909C183.893 436.909 182.836 438.367 182.836 442.491C182.836 443.821 182.431 444.909 181.935 444.909C180.019 444.909 164.865 425.88 156.452 412.909C153.777 408.784 150.686 404.112 149.585 402.528C142.2 391.903 129.186 362.406 124.827 346.409C124.377 344.759 123.256 340.709 122.336 337.409C120.027 329.135 118.55 320.409 115.988 299.909C114.681 289.451 114.176 261.785 115.261 260.031C115.771 259.206 116.997 258.984 118.691 259.409C120.142 259.773 127.997 260.412 136.147 260.829ZM189.836 272.909C189.836 273.459 188.936 273.909 187.836 273.909C186.736 273.909 185.836 273.459 185.836 272.909C185.836 272.359 186.736 271.909 187.836 271.909C188.936 271.909 189.836 272.359 189.836 272.909ZM223.424 309.654C222.349 310.729 221.778 309.223 222.533 307.302C223.241 305.5 223.295 305.497 223.645 307.237C223.847 308.243 223.748 309.33 223.424 309.654ZM223.836 334.409C223.836 340.076 223.432 343.909 222.836 343.909C221.725 343.909 221.411 326.667 222.503 325.576C223.749 324.329 223.836 324.906 223.836 334.409ZM304.161 338.314C304.77 339.9 318.569 346.909 321.084 346.909C321.982 346.909 322.996 347.359 323.336 347.909C323.676 348.459 325.251 348.909 326.836 348.909C328.421 348.909 329.996 349.359 330.336 349.909C330.707 350.508 329.428 350.911 327.145 350.915C320.078 350.925 291.836 361.269 291.836 363.846C291.836 364.431 291.386 364.909 290.836 364.909C289.539 364.909 289.491 340.24 290.786 339.44C292.282 338.515 294.042 342.645 293.01 344.659C291.64 347.333 290.832 355.284 291.775 356.81C293.005 358.8 294.555 357.397 297.458 351.668C299.377 347.881 299.896 345.663 299.472 343.052C298.887 339.451 300.079 336.909 302.351 336.909C303.05 336.909 303.865 337.541 304.161 338.314ZM265.336 375.909C265.336 378.497 264.037 379.32 261.994 378.027C260.874 377.318 260.872 376.823 261.986 375.04C263.648 372.38 265.336 372.818 265.336 375.909ZM199.836 383.958C199.836 386.146 200.381 388.81 201.048 389.877C202.444 392.112 201.627 393.427 199.379 392.564C198.53 392.238 197.836 390.919 197.836 389.632C197.836 388.344 197.246 386.484 196.524 385.497C195.803 384.511 195.402 382.41 195.634 380.83C195.996 378.364 196.324 378.1 197.946 378.968C199.313 379.7 199.836 381.08 199.836 383.958ZM265.278 386.092C264.67 388.009 264.499 388.057 263.656 386.552C263.138 385.626 263.02 383.904 263.394 382.726C264.002 380.809 264.173 380.761 265.016 382.266C265.534 383.192 265.652 384.914 265.278 386.092ZM184.519 385.097C184.2 385.894 183.963 385.657 183.915 384.492C183.872 383.438 184.108 382.848 184.44 383.18C184.772 383.512 184.808 384.375 184.519 385.097ZM213.821 388.159C213.809 389.817 213.577 390.049 212.939 389.041C212.462 388.289 211.456 387.283 210.704 386.806C209.696 386.168 209.928 385.936 211.586 385.924C213.262 385.913 213.832 386.483 213.821 388.159ZM218.821 393.159C218.808 394.978 218.62 395.122 217.836 393.909C216.583 391.97 216.583 390.909 217.836 390.909C218.386 390.909 218.829 391.921 218.821 393.159ZM246.175 400.351C246.479 401.143 249.511 403.561 252.911 405.723C260.12 410.306 262.801 410.258 262.906 405.542C262.945 403.819 263.336 401.509 263.776 400.409C264.906 397.578 266.252 420.423 265.37 427.48C264.755 432.407 264.932 433.383 266.806 435.377C268.567 437.251 268.683 437.754 267.466 438.221C266.575 438.563 265.351 437.818 264.388 436.349C261.666 432.194 260.587 433.352 261.305 439.659C262.188 447.415 263.069 500.831 262.361 503.659C261.44 507.337 259.767 506.794 245.513 498.19C228.889 488.156 226.439 485.773 225.115 478.354C223.892 471.499 224.735 446.133 226.2 445.701C226.825 445.517 231.059 445.523 235.61 445.715L243.884 446.063L251.289 453.589C255.362 457.728 259.176 460.817 259.765 460.453C262.529 458.744 260.599 455.003 253.096 447.524L245.355 439.808L245.659 426.109C245.913 414.709 245.642 411.452 244.05 406.708C242.715 402.729 242.454 400.691 243.187 399.958C244.621 398.524 245.519 398.642 246.175 400.351ZM283.529 404.64C283.275 405.613 283.051 405.059 283.031 403.409C283.011 401.759 283.218 400.963 283.492 401.64C283.766 402.317 283.783 403.667 283.529 404.64ZM290.507 401.659C290.261 402.072 289.897 406.433 289.698 411.352C289.341 420.167 289.372 420.305 291.836 421.002C296.006 422.182 312.324 422.021 313.558 420.787C315.787 418.558 312.564 414.068 304.336 407.94C296.463 402.078 291.58 399.86 290.507 401.659ZM229.447 404.496C230.022 406.788 230.464 407.014 233.315 406.479L236.533 405.875L236.06 415.701C235.685 423.494 235.922 426.175 237.208 428.661C238.396 430.959 238.52 431.987 237.67 432.511C236.039 433.519 232.659 429.043 233.367 426.812C234.066 424.608 231.732 417.445 227.768 409.629C224.303 402.798 224.193 401.909 226.817 401.909C228.114 401.909 229.022 402.802 229.447 404.496ZM213.575 409.808C215.998 413.267 217.736 416.342 217.436 416.642C216.957 417.122 213.675 414.836 207.769 409.909C206.505 408.854 206.136 407.581 206.528 405.617C206.835 404.082 207.554 402.982 208.126 403.172C208.699 403.363 211.151 406.35 213.575 409.808ZM209.902 430.944C212.861 432.528 212.209 433.909 208.503 433.909C204.544 433.909 203.446 433.084 204.967 431.251C206.305 429.638 207.341 429.574 209.902 430.944ZM221.836 444.826C221.836 445.33 221.328 445.912 220.707 446.119C220.022 446.347 219.364 450.403 219.031 456.452C218.381 468.27 217.087 465.927 216.936 452.659C216.837 443.966 216.852 443.909 219.336 443.909C220.711 443.909 221.836 444.322 221.836 444.826Z" fill="#e39235"/>
</svg>
